<?xml version="1.0" standalone="no"?>
<!DOCTYPE svg PUBLIC "-//W3C//DTD SVG 20010904//EN"
 "http://www.w3.org/TR/2001/REC-SVG-20010904/DTD/svg10.dtd">
<svg version="1.0" xmlns="http://www.w3.org/2000/svg"
 width="996.000000pt" height="996.000000pt" viewBox="0 0 996.000000 996.000000"
 preserveAspectRatio="xMidYMid meet">
<metadata>
Created by potrace 1.11, written by Peter Selinger 2001-2013
</metadata>
<g transform="translate(0.000000,996.000000) scale(0.100000,-0.100000)"
fill="#000000" stroke="none">
<path d="M2097 8853 c-4 -3 -7 -1860 -7 -4125 l0 -4118 2870 0 2870 0 0 460 0
460 -2320 0 -2320 0 0 1425 0 1425 2145 0 2145 0 0 465 0 465 -2145 0 -2145 0
0 1310 0 1310 2300 0 2300 0 0 465 0 465 -2843 0 c-1564 0 -2847 -3 -2850 -7z"/>
</g>
</svg>
